<svg width="22" height="22" viewBox="0 0 22 22" fill="none" xmlns="http://www.w3.org/2000/svg">
<path d="M10.8333 21.6667C9.35278 21.6667 7.95347 21.3821 6.63542 20.813C5.31736 20.2439 4.1665 19.4675 3.18283 18.4838C2.19917 17.5002 1.42278 16.3493 0.853667 15.0312C0.284556 13.7132 0 12.3139 0 10.8333C0 9.33472 0.293583 7.92639 0.88075 6.60833C1.46792 5.29028 2.26236 4.14375 3.26408 3.16875C4.26581 2.19375 5.43472 1.42206 6.77083 0.853667C8.10694 0.285278 9.53333 0.000722222 11.05 0C12.4944 0 13.8576 0.248444 15.1396 0.745333C16.4215 1.24222 17.5457 1.92833 18.512 2.80367C19.4783 3.679 20.2457 4.71719 20.8141 5.91825C21.3825 7.1193 21.6667 8.41461 21.6667 9.80417C21.6667 11.8806 21.0347 13.4741 19.7708 14.5849C18.5069 15.6957 16.9722 16.2507 15.1667 16.25H13.1625C13 16.25 12.8873 16.2951 12.8245 16.3854C12.7617 16.4757 12.7299 16.575 12.7292 16.6833C12.7292 16.9 12.8646 17.2116 13.1354 17.6182C13.4062 18.0249 13.5417 18.4896 13.5417 19.0125C13.5417 19.9153 13.2936 20.5833 12.7974 21.0167C12.3012 21.45 11.6466 21.6667 10.8333 21.6667ZM4.875 11.9167C5.34444 11.9167 5.73264 11.7632 6.03958 11.4562C6.34653 11.1493 6.5 10.7611 6.5 10.2917C6.5 9.82222 6.34653 9.43403 6.03958 9.12708C5.73264 8.82014 5.34444 8.66667 4.875 8.66667C4.40556 8.66667 4.01736 8.82014 3.71042 9.12708C3.40347 9.43403 3.25 9.82222 3.25 10.2917C3.25 10.7611 3.40347 11.1493 3.71042 11.4562C4.01736 11.7632 4.40556 11.9167 4.875 11.9167ZM8.125 7.58333C8.59444 7.58333 8.98264 7.42986 9.28958 7.12292C9.59653 6.81597 9.75 6.42778 9.75 5.95833C9.75 5.48889 9.59653 5.10069 9.28958 4.79375C8.98264 4.48681 8.59444 4.33333 8.125 4.33333C7.65555 4.33333 7.26736 4.48681 6.96042 4.79375C6.65347 5.10069 6.5 5.48889 6.5 5.95833C6.5 6.42778 6.65347 6.81597 6.96042 7.12292C7.26736 7.42986 7.65555 7.58333 8.125 7.58333ZM13.5417 7.58333C14.0111 7.58333 14.3993 7.42986 14.7062 7.12292C15.0132 6.81597 15.1667 6.42778 15.1667 5.95833C15.1667 5.48889 15.0132 5.10069 14.7062 4.79375C14.3993 4.48681 14.0111 4.33333 13.5417 4.33333C13.0722 4.33333 12.684 4.48681 12.3771 4.79375C12.0701 5.10069 11.9167 5.48889 11.9167 5.95833C11.9167 6.42778 12.0701 6.81597 12.3771 7.12292C12.684 7.42986 13.0722 7.58333 13.5417 7.58333ZM16.7917 11.9167C17.2611 11.9167 17.6493 11.7632 17.9562 11.4562C18.2632 11.1493 18.4167 10.7611 18.4167 10.2917C18.4167 9.82222 18.2632 9.43403 17.9562 9.12708C17.6493 8.82014 17.2611 8.66667 16.7917 8.66667C16.3222 8.66667 15.934 8.82014 15.6271 9.12708C15.3201 9.43403 15.1667 9.82222 15.1667 10.2917C15.1667 10.7611 15.3201 11.1493 15.6271 11.4562C15.934 11.7632 16.3222 11.9167 16.7917 11.9167Z" fill="white"/>
</svg>
